HIERARCHY
ROOT Hips
{
    OFFSET 0.000000 0.000000 0.000000
    CHANNELS 6 Xposition Yposition Zposition Zrotation Xrotation Yrotation
    JOINT Spine
    {
        OFFSET -0.000000 7.236184 0.000000
        CHANNELS 3 Zrotation Xrotation Yrotation
        JOINT Spine1
        {
            OFFSET -0.000000 20.420147 0.000000
            CHANNELS 3 Zrotation Xrotation Yrotation
            JOINT Neck
            {
                OFFSET -0.000000 20.336288 1.848754
                CHANNELS 3 Zrotation Xrotation Yrotation
                JOINT Head
                {
                    OFFSET -0.000000 12.354461 -1.764923
                    CHANNELS 3 Zrotation Xrotation Yrotation
                    End Site
                    {
                        OFFSET -0.000000 22.061537 0.000000
                    }
                }
            }
            JOINT LeftShoulder
            {
                OFFSET 3.573296 18.396038 -0.314103
                CHANNELS 3 Zrotation Xrotation Yrotation
                JOINT LeftArm
                {
                    OFFSET 10.880760 0.000000 0.000000
                    CHANNELS 3 Zrotation Xrotation Yrotation
                    JOINT LeftForeArm
                    {
                        OFFSET 27.185530 0.000000 0.000000
                        CHANNELS 3 Zrotation Xrotation Yrotation
                        JOINT LeftHand
                        {
                            OFFSET 27.825975 0.000000 0.000000
                            CHANNELS 3 Zrotation Xrotation Yrotation
                            End Site
                            {
                                OFFSET 13.236923 0.000000 0.000000
                            }
                        }
                    }
                }
            }
            JOINT RightShoulder
            {
                OFFSET -3.474926 18.396038 -0.314103
                CHANNELS 3 Zrotation Xrotation Yrotation
                JOINT RightArm
                {
                    OFFSET -10.880760 0.000000 0.000000
                    CHANNELS 3 Zrotation Xrotation Yrotation
                    JOINT RightForeArm
                    {
                        OFFSET -27.185530 0.000000 0.000000
                        CHANNELS 3 Zrotation Xrotation Yrotation
                        JOINT RightHand
                        {
                            OFFSET -27.825975 0.000000 0.000000
                            CHANNELS 3 Zrotation Xrotation Yrotation
                            End Site
                            {
                                OFFSET -13.236923 0.000000 0.000000
                            }
                        }
                    }
                }
            }
        }
    }
    JOINT LeftUpLeg
    {
        OFFSET 8.824615 0.000000 0.000000
        CHANNELS 3 Zrotation Xrotation Yrotation
        JOINT LeftLeg
        {
            OFFSET -0.000000 -35.111282 0.000000
            CHANNELS 3 Zrotation Xrotation Yrotation
            JOINT LeftFoot
            {
                OFFSET -0.000000 -42.324711 0.000000
                CHANNELS 3 Zrotation Xrotation Yrotation
                JOINT LeftToeBase
                {
                    OFFSET -0.000000 -5.735999 13.236923
                    CHANNELS 3 Zrotation Xrotation Yrotation
                    End Site
                    {
                        OFFSET -0.000000 0.000000 3.529846
                    }
                }
            }
        }
    }
    JOINT RightUpLeg
    {
        OFFSET -8.824615 0.000000 0.000000
        CHANNELS 3 Zrotation Xrotation Yrotation
        JOINT RightLeg
        {
            OFFSET -0.000000 -35.111282 0.000000
            CHANNELS 3 Zrotation Xrotation Yrotation
            JOINT RightFoot
            {
                OFFSET -0.000000 -42.324711 0.000000
                CHANNELS 3 Zrotation Xrotation Yrotation
                JOINT RightToeBase
                {
                    OFFSET -0.000000 -5.735999 13.236923
                    CHANNELS 3 Zrotation Xrotation Yrotation
                    End Site
                    {
                        OFFSET -0.000000 0.000000 3.529846
                    }
                }
            }
        }
    }
}
MOTION
Frames:    10
Frame Time:    0.008333
-11.187289    83.171204    96.543922    2.071267    -15.509405    172.776382    -2.008310    -10.757344    0.240738    4.230528    -1.953849    0.502107    3.376155    2.229256    -4.605373    8.094578    -9.642879    -3.409931    3.851926    12.236171    1.199594    -53.040276    24.594990    -21.764059    -1.867662    -2.730456    -9.951774    17.823326    -2.673636    1.399973    6.369530    16.279890    -8.857512    50.132317    36.852791    24.091381    -0.969466    -9.578030    13.911171    -16.588657    -9.006434    -3.160351    10.185266    -22.383688    1.604476    -0.019390    26.006454    8.405453    -7.787315    -13.013966    -13.840067    0.263171    -0.620128    -0.292044    -19.234812    -28.270273    -4.575859    9.354559    24.106188    -6.260172    18.844128    6.077920    -2.241586    -0.314424    -4.225357    0.342130    
-11.588170    83.257545    96.636971    2.147332    -15.481131    171.839371    -1.887506    -10.596745    0.134055    4.372509    -1.898534    0.381899    3.521906    2.332944    -4.368350    7.948049    -9.530485    -3.219025    3.914235    12.178193    1.019672    -52.600956    24.882679    -21.932173    -1.913467    -2.759516    -9.778669    17.854855    -2.682176    1.534950    6.371622    16.245533    -8.815685    50.176250    36.520325    24.002188    -0.992354    -9.579052    13.906173    -16.626482    -9.005479    -3.147988    10.254028    -22.025335    1.808826    -0.197065    25.732656    8.930108    -7.579784    -13.087714    -13.637517    0.274946    -0.546777    -0.305070    -19.821978    -29.963705    -5.111886    10.000530    26.248753    -6.480458    19.456011    6.550123    -2.337513    -0.110708    -4.332606    0.120485    
-11.982391    83.348045    96.729050    2.237401    -15.439772    170.913406    -1.760621    -10.430104    0.019468    4.523685    -1.831486    0.252974    3.650601    2.446831    -4.130336    7.792089    -9.403035    -3.027168    3.975984    12.116383    0.839715    -52.134144    25.210442    -22.116140    -1.959682    -2.773105    -9.625326    17.850433    -2.673553    1.685221    6.360400    16.214603    -8.777826    50.255226    36.162552    23.879053    -1.012199    -9.574939    13.929069    -16.669052    -8.998726    -3.140030    10.331044    -21.647194    2.018223    -0.366852    25.439253    9.455381    -7.375681    -13.141124    -13.455784    0.276412    -0.466836    -0.306652    -20.435556    -31.684370    -5.786585    10.641936    28.477486    -6.686097    19.984638    6.941720    -2.488216    0.096944    -4.416261    -0.105510    
-12.358422    83.440002    96.817078    2.341146    -15.387605    170.031006    -1.630014    -10.264440    -0.099021    4.679034    -1.752626    0.119630    3.758792    2.565922    -3.900305    7.631142    -9.265716    -2.842005    4.033976    12.050949    0.666059    -51.654411    25.558392    -22.315495    -2.002151    -2.766648    -9.497839    17.812992    -2.644086    1.844252    6.336393    16.188141    -8.745590    50.363754    35.794945    23.726852    -1.027882    -9.566204    13.975457    -16.714373    -8.986790    -3.137454    10.412657    -21.264189    2.222893    -0.520944    25.139730    9.965344    -7.181951    -13.175441    -13.302118    0.265103    -0.380336    -0.294060    -21.062622    -33.375183    -6.578859    11.256190    30.721695    -6.881609    20.401134    7.245852    -2.669783    0.292282    -4.477252    -0.318147    
-12.720256    83.534195    96.901695    2.460453    -15.325735    169.187531    -1.493832    -10.100576    -0.221088    4.838594    -1.659697    -0.019322    3.848705    2.688890    -3.677612    7.465311    -9.118368    -2.663213    4.088119    11.980662    0.498470    -51.161327    25.914333    -22.535297    -2.038792    -2.737778    -9.395679    17.749533    -2.591544    2.010513    6.301092    16.166309    -8.718645    50.496426    35.419167    23.548574    -1.038340    -9.552190    14.039731    -16.762453    -8.969185    -3.140146    10.497834    -20.876976    2.420846    -0.659261    24.836523    10.462124    -6.997311    -13.194561    -13.172373    0.240167    -0.285317    -0.266355    -21.714457    -35.046227    -7.485913    11.849319    32.994114    -7.078967    20.709984    7.476622    -2.867807    0.470653    -4.519110    -0.512337    
-13.074631    83.632355    96.984314    2.598258    -15.254837    168.371063    -1.348867    -9.937495    -0.349497    5.003312    -1.550563    -0.164366    3.924583    2.817314    -3.459426    7.291707    -8.960695    -2.488909    4.138869    11.903944    0.334366    -50.651379    26.267815    -22.780521    -2.066713    -2.685430    -9.318710    17.666656    -2.514677    2.183880    6.256958    16.149258    -8.696535    50.648132    35.033527    23.344917    -1.041970    -9.531546    14.116534    -16.813498    -8.944770    -3.148257    10.587151    -20.482243    2.611570    -0.784047    24.527920    10.951233    -6.818023    -13.201139    -13.059175    0.201327    -0.180922    -0.223237    -22.409962    -36.723778    -8.516907    12.434063    35.329414    -7.288264    20.921476    7.647858    -3.077171    0.631613    -4.543341    -0.687578    
-13.409347    83.730904    97.061913    2.749711    -15.178820    167.612396    -1.199559    -9.781393    -0.477510    5.164864    -1.431225    -0.310428    3.986616    2.947595    -3.254414    7.117617    -8.801439    -2.326180    4.185159    11.824507    0.179785    -50.151852    26.587463    -23.042358    -2.080882    -2.612499    -9.270622    17.575771    -2.417398    2.354603    6.209563    16.139746    -8.680642    50.805809    34.655022    23.128630    -1.036590    -9.502977    14.195304    -16.864185    -8.912839    -3.160897    10.676675    -20.096552    2.785265    -0.891208    24.227911    11.412226    -6.648464    -13.196831    -12.960203    0.152812    -0.073746    -0.169410    -23.133125    -38.344894    -9.624275    12.999841    37.638283    -7.509382    21.036219    7.761658    -3.286711    0.767849    -4.550943    -0.835896    
-13.734666    83.832199    97.136452    2.917644    -15.096198    166.889389    -1.042120    -9.627698    -0.608015    5.325381    -1.300894    -0.459712    4.040110    3.084400    -3.057223    6.938759    -8.638716    -2.170944    4.228890    11.741446    0.030464    -49.658234    26.865519    -23.325157    -2.077704    -2.521290    -9.250684    17.484497    -2.301528    2.523280    6.162550    16.139753    -8.671320    50.964008    34.277412    22.900427    -1.021010    -9.464544    14.270864    -16.913155    -8.871635    -3.178443    10.767609    -19.709768    2.945159    -0.985018    23.929611    11.856245    -6.480529    -13.182646    -12.865803    0.098200    0.032972    -0.108845    -23.913355    -39.952744    -10.823106    13.579045    39.978340    -7.757200    21.071320    7.829243    -3.503984    0.884068    -4.542893    -0.962402    
-14.045255    83.934090    97.206779    3.098979    -15.011267    166.214233    -0.878193    -9.480255    -0.737126    5.480487    -1.165364    -0.608503    4.086111    3.227420    -2.871855    6.759739    -8.478164    -2.026181    4.269492    11.657850    -0.110388    -49.189117    27.081789    -23.621536    -2.052990    -2.418675    -9.260827    17.406918    -2.174296    2.683568    6.119942    16.151505    -8.669414    51.113670    33.910656    22.669886    -0.994884    -9.415161    14.333722    -16.956110    -8.820494    -3.199943    10.859786    -19.331993    3.090070    -1.064616    23.640690    12.271633    -6.313045    -13.159683    -12.771564    0.042559    0.131935    -0.047164    -24.747213    -41.519669    -12.078509    14.187427    42.302998    -8.044030    21.037041    7.854152    -3.728186    0.979434    -4.521584    -1.066185    
-14.343720    84.036461    97.273132    3.291854    -14.923468    165.580322    -0.708806    -9.336976    -0.864416    5.630083    -1.027578    -0.756005    4.126298    3.378995    -2.697388    6.581153    -8.320541    -1.890903    4.306901    11.574502    -0.242652    -48.750469    27.227026    -23.929422    -2.003852    -2.311815    -9.302505    17.356752    -2.042645    2.832593    6.083656    16.176720    -8.675361    51.250992    33.555065    22.440987    -0.958034    -9.353434    14.376933    -16.989655    -8.758238    -3.224956    10.951903    -18.961012    3.222983    -1.131235    23.360952    12.657523    -6.140366    -13.128491    -12.671657    -0.011950    0.216929    0.013241    -25.651939    -43.054348    -13.384480    14.859613    44.620796    -8.391528    20.945658    7.841195    -3.963272    1.056973    -4.488784    -1.150534    
